<mxfile host="app.diagrams.net" agent="Mozilla/5.0 (X11; Ubuntu; Linux x86_64; rv:142.0) Gecko/20100101 Firefox/142.0" version="28.1.1">
  <diagram name="Page-1" id="fheeHbSsoB6rVIH3uIFR">
    <mxGraphModel dx="1530" dy="725" grid="1" gridSize="10" guides="1" tooltips="1" connect="1" arrows="1" fold="1" page="1" pageScale="1" pageWidth="827" pageHeight="1169" math="0" shadow="0">
      <root>
        <mxCell id="0" />
        <mxCell id="1" parent="0" />
        <mxCell id="qHUCnsP_PapXw8HSUuVQ-1" value="Socios" style="whiteSpace=wrap;html=1;align=center;" parent="1" vertex="1">
          <mxGeometry x="450" y="260" width="100" height="40" as="geometry" />
        </mxCell>
        <mxCell id="qHUCnsP_PapXw8HSUuVQ-2" value="Identidade" style="ellipse;whiteSpace=wrap;html=1;align=center;" parent="1" vertex="1">
          <mxGeometry x="260" y="140" width="100" height="40" as="geometry" />
        </mxCell>
        <mxCell id="qHUCnsP_PapXw8HSUuVQ-3" value="Nome" style="ellipse;whiteSpace=wrap;html=1;align=center;" parent="1" vertex="1">
          <mxGeometry x="370" y="110" width="100" height="40" as="geometry" />
        </mxCell>
        <mxCell id="qHUCnsP_PapXw8HSUuVQ-4" value="Endereço" style="ellipse;whiteSpace=wrap;html=1;align=center;" parent="1" vertex="1">
          <mxGeometry x="470" y="130" width="100" height="40" as="geometry" />
        </mxCell>
        <mxCell id="qHUCnsP_PapXw8HSUuVQ-6" value="Nascimento" style="ellipse;whiteSpace=wrap;html=1;align=center;" parent="1" vertex="1">
          <mxGeometry x="240" y="200" width="100" height="40" as="geometry" />
        </mxCell>
        <mxCell id="qHUCnsP_PapXw8HSUuVQ-7" value="&lt;u&gt;CPF&lt;/u&gt;" style="ellipse;whiteSpace=wrap;html=1;align=center;" parent="1" vertex="1">
          <mxGeometry x="240" y="250" width="100" height="40" as="geometry" />
        </mxCell>
        <mxCell id="qHUCnsP_PapXw8HSUuVQ-8" value="&lt;u&gt;ID&lt;/u&gt;" style="ellipse;whiteSpace=wrap;html=1;align=center;" parent="1" vertex="1">
          <mxGeometry x="310" y="300" width="100" height="40" as="geometry" />
        </mxCell>
        <mxCell id="qHUCnsP_PapXw8HSUuVQ-9" value="Telefones" style="ellipse;shape=doubleEllipse;margin=3;whiteSpace=wrap;html=1;align=center;" parent="1" vertex="1">
          <mxGeometry x="534" y="190" width="100" height="40" as="geometry" />
        </mxCell>
        <mxCell id="qHUCnsP_PapXw8HSUuVQ-10" value="" style="endArrow=none;html=1;rounded=0;exitX=1;exitY=0.5;exitDx=0;exitDy=0;entryX=0;entryY=0.75;entryDx=0;entryDy=0;" parent="1" source="qHUCnsP_PapXw8HSUuVQ-8" target="qHUCnsP_PapXw8HSUuVQ-1" edge="1">
          <mxGeometry relative="1" as="geometry">
            <mxPoint x="360" y="410" as="sourcePoint" />
            <mxPoint x="520" y="410" as="targetPoint" />
          </mxGeometry>
        </mxCell>
        <mxCell id="qHUCnsP_PapXw8HSUuVQ-11" value="" style="endArrow=none;html=1;rounded=0;exitX=1;exitY=0.5;exitDx=0;exitDy=0;entryX=0;entryY=0.5;entryDx=0;entryDy=0;" parent="1" source="qHUCnsP_PapXw8HSUuVQ-7" target="qHUCnsP_PapXw8HSUuVQ-1" edge="1">
          <mxGeometry relative="1" as="geometry">
            <mxPoint x="500" y="360" as="sourcePoint" />
            <mxPoint x="660" y="360" as="targetPoint" />
          </mxGeometry>
        </mxCell>
        <mxCell id="qHUCnsP_PapXw8HSUuVQ-12" value="" style="endArrow=none;html=1;rounded=0;exitX=1;exitY=0.5;exitDx=0;exitDy=0;entryX=0;entryY=0.25;entryDx=0;entryDy=0;" parent="1" source="qHUCnsP_PapXw8HSUuVQ-6" target="qHUCnsP_PapXw8HSUuVQ-1" edge="1">
          <mxGeometry relative="1" as="geometry">
            <mxPoint x="410" y="410" as="sourcePoint" />
            <mxPoint x="570" y="410" as="targetPoint" />
          </mxGeometry>
        </mxCell>
        <mxCell id="qHUCnsP_PapXw8HSUuVQ-14" value="" style="endArrow=none;html=1;rounded=0;exitX=1;exitY=0.5;exitDx=0;exitDy=0;entryX=0;entryY=0;entryDx=0;entryDy=0;" parent="1" source="qHUCnsP_PapXw8HSUuVQ-2" target="qHUCnsP_PapXw8HSUuVQ-1" edge="1">
          <mxGeometry relative="1" as="geometry">
            <mxPoint x="550" y="420" as="sourcePoint" />
            <mxPoint x="710" y="420" as="targetPoint" />
          </mxGeometry>
        </mxCell>
        <mxCell id="qHUCnsP_PapXw8HSUuVQ-15" value="" style="endArrow=none;html=1;rounded=0;exitX=0.5;exitY=1;exitDx=0;exitDy=0;entryX=0.25;entryY=0;entryDx=0;entryDy=0;" parent="1" source="qHUCnsP_PapXw8HSUuVQ-3" target="qHUCnsP_PapXw8HSUuVQ-1" edge="1">
          <mxGeometry relative="1" as="geometry">
            <mxPoint x="440" y="410" as="sourcePoint" />
            <mxPoint x="600" y="410" as="targetPoint" />
          </mxGeometry>
        </mxCell>
        <mxCell id="qHUCnsP_PapXw8HSUuVQ-16" value="" style="endArrow=none;html=1;rounded=0;exitX=0.5;exitY=1;exitDx=0;exitDy=0;entryX=0.5;entryY=0;entryDx=0;entryDy=0;" parent="1" source="qHUCnsP_PapXw8HSUuVQ-4" target="qHUCnsP_PapXw8HSUuVQ-1" edge="1">
          <mxGeometry relative="1" as="geometry">
            <mxPoint x="480" y="400" as="sourcePoint" />
            <mxPoint x="640" y="400" as="targetPoint" />
          </mxGeometry>
        </mxCell>
        <mxCell id="qHUCnsP_PapXw8HSUuVQ-17" value="" style="endArrow=none;html=1;rounded=0;exitX=0.75;exitY=0;exitDx=0;exitDy=0;entryX=0;entryY=1;entryDx=0;entryDy=0;" parent="1" source="qHUCnsP_PapXw8HSUuVQ-1" target="qHUCnsP_PapXw8HSUuVQ-9" edge="1">
          <mxGeometry relative="1" as="geometry">
            <mxPoint x="500" y="390" as="sourcePoint" />
            <mxPoint x="660" y="390" as="targetPoint" />
          </mxGeometry>
        </mxCell>
        <mxCell id="qHUCnsP_PapXw8HSUuVQ-18" value="Titulo" style="whiteSpace=wrap;html=1;align=center;" parent="1" vertex="1">
          <mxGeometry x="1020.8499999999999" y="530" width="100" height="40" as="geometry" />
        </mxCell>
        <mxCell id="qHUCnsP_PapXw8HSUuVQ-19" value="Descrição" style="ellipse;whiteSpace=wrap;html=1;align=center;" parent="1" vertex="1">
          <mxGeometry x="904.1499999999999" y="470" width="100" height="40" as="geometry" />
        </mxCell>
        <mxCell id="qHUCnsP_PapXw8HSUuVQ-20" value="Quantridade&amp;nbsp;&lt;div&gt;total&lt;/div&gt;" style="ellipse;whiteSpace=wrap;html=1;align=center;" parent="1" vertex="1">
          <mxGeometry x="1167.1499999999999" y="440" width="100" height="40" as="geometry" />
        </mxCell>
        <mxCell id="qHUCnsP_PapXw8HSUuVQ-21" value="Quantidade&lt;div&gt;emprestados&lt;/div&gt;" style="ellipse;whiteSpace=wrap;html=1;align=center;" parent="1" vertex="1">
          <mxGeometry x="1290" y="460" width="100" height="40" as="geometry" />
        </mxCell>
        <mxCell id="qHUCnsP_PapXw8HSUuVQ-22" value="Quantidade&lt;div&gt;disponivel&lt;/div&gt;" style="ellipse;whiteSpace=wrap;html=1;align=center;" parent="1" vertex="1">
          <mxGeometry x="1240.85" y="530" width="100" height="40" as="geometry" />
        </mxCell>
        <mxCell id="qHUCnsP_PapXw8HSUuVQ-25" value="&lt;u&gt;ISBN&lt;/u&gt;" style="ellipse;whiteSpace=wrap;html=1;align=center;" parent="1" vertex="1">
          <mxGeometry x="877.15" y="540" width="100" height="40" as="geometry" />
        </mxCell>
        <mxCell id="qHUCnsP_PapXw8HSUuVQ-26" value="" style="endArrow=none;html=1;rounded=0;entryX=1;entryY=0.5;entryDx=0;entryDy=0;exitX=0;exitY=0.75;exitDx=0;exitDy=0;" parent="1" source="qHUCnsP_PapXw8HSUuVQ-18" target="qHUCnsP_PapXw8HSUuVQ-25" edge="1">
          <mxGeometry relative="1" as="geometry">
            <mxPoint x="1071" y="570" as="sourcePoint" />
            <mxPoint x="1270.85" y="680" as="targetPoint" />
          </mxGeometry>
        </mxCell>
        <mxCell id="qHUCnsP_PapXw8HSUuVQ-27" value="" style="endArrow=none;html=1;rounded=0;exitX=0.25;exitY=1;exitDx=0;exitDy=0;entryX=0.5;entryY=0;entryDx=0;entryDy=0;" parent="1" source="qHUCnsP_PapXw8HSUuVQ-18" target="qHUCnsP_PapXw8HSUuVQ-57" edge="1">
          <mxGeometry relative="1" as="geometry">
            <mxPoint x="1220.85" y="740" as="sourcePoint" />
            <mxPoint x="1200.8499999999997" y="620" as="targetPoint" />
          </mxGeometry>
        </mxCell>
        <mxCell id="qHUCnsP_PapXw8HSUuVQ-129" value="0..N" style="edgeLabel;html=1;align=center;verticalAlign=middle;resizable=0;points=[];" parent="qHUCnsP_PapXw8HSUuVQ-27" vertex="1" connectable="0">
          <mxGeometry x="-0.0745" y="-1" relative="1" as="geometry">
            <mxPoint x="11" y="13" as="offset" />
          </mxGeometry>
        </mxCell>
        <mxCell id="qHUCnsP_PapXw8HSUuVQ-29" value="" style="endArrow=none;html=1;rounded=0;exitX=1;exitY=0.5;exitDx=0;exitDy=0;entryX=0;entryY=0.5;entryDx=0;entryDy=0;" parent="1" source="qHUCnsP_PapXw8HSUuVQ-18" target="qHUCnsP_PapXw8HSUuVQ-22" edge="1">
          <mxGeometry relative="1" as="geometry">
            <mxPoint x="1060.85" y="750" as="sourcePoint" />
            <mxPoint x="1220.85" y="750" as="targetPoint" />
          </mxGeometry>
        </mxCell>
        <mxCell id="qHUCnsP_PapXw8HSUuVQ-30" value="" style="endArrow=none;html=1;rounded=0;exitX=1;exitY=0.25;exitDx=0;exitDy=0;entryX=0;entryY=1;entryDx=0;entryDy=0;" parent="1" source="qHUCnsP_PapXw8HSUuVQ-18" target="qHUCnsP_PapXw8HSUuVQ-21" edge="1">
          <mxGeometry relative="1" as="geometry">
            <mxPoint x="1370.85" y="750" as="sourcePoint" />
            <mxPoint x="1530.85" y="750" as="targetPoint" />
          </mxGeometry>
        </mxCell>
        <mxCell id="qHUCnsP_PapXw8HSUuVQ-31" value="" style="endArrow=none;html=1;rounded=0;exitX=1;exitY=0;exitDx=0;exitDy=0;entryX=0;entryY=1;entryDx=0;entryDy=0;" parent="1" source="qHUCnsP_PapXw8HSUuVQ-18" target="qHUCnsP_PapXw8HSUuVQ-20" edge="1">
          <mxGeometry relative="1" as="geometry">
            <mxPoint x="1080.85" y="770" as="sourcePoint" />
            <mxPoint x="1240.85" y="770" as="targetPoint" />
          </mxGeometry>
        </mxCell>
        <mxCell id="qHUCnsP_PapXw8HSUuVQ-32" value="" style="endArrow=none;html=1;rounded=0;exitX=0;exitY=0;exitDx=0;exitDy=0;entryX=1;entryY=1;entryDx=0;entryDy=0;" parent="1" source="qHUCnsP_PapXw8HSUuVQ-18" target="qHUCnsP_PapXw8HSUuVQ-19" edge="1">
          <mxGeometry relative="1" as="geometry">
            <mxPoint x="970.85" y="670" as="sourcePoint" />
            <mxPoint x="1130.85" y="670" as="targetPoint" />
            <Array as="points" />
          </mxGeometry>
        </mxCell>
        <mxCell id="qHUCnsP_PapXw8HSUuVQ-33" value="Exemplar" style="whiteSpace=wrap;html=1;align=center;" parent="1" vertex="1">
          <mxGeometry x="1069.9999999999998" y="260" width="100" height="40" as="geometry" />
        </mxCell>
        <mxCell id="qHUCnsP_PapXw8HSUuVQ-34" value="Possui" style="shape=rhombus;perimeter=rhombusPerimeter;whiteSpace=wrap;html=1;align=center;" parent="1" vertex="1">
          <mxGeometry x="1010.8499999999999" y="370" width="120" height="60" as="geometry" />
        </mxCell>
        <mxCell id="qHUCnsP_PapXw8HSUuVQ-37" value="Localização" style="ellipse;whiteSpace=wrap;html=1;align=center;" parent="1" vertex="1">
          <mxGeometry x="1122.85" y="170" width="100" height="40" as="geometry" />
        </mxCell>
        <mxCell id="qHUCnsP_PapXw8HSUuVQ-38" value="&lt;u&gt;ID&lt;/u&gt;" style="ellipse;whiteSpace=wrap;html=1;align=center;" parent="1" vertex="1">
          <mxGeometry x="1012.85" y="170" width="100" height="40" as="geometry" />
        </mxCell>
        <mxCell id="qHUCnsP_PapXw8HSUuVQ-39" value="" style="endArrow=none;html=1;rounded=0;exitX=0.5;exitY=1;exitDx=0;exitDy=0;entryX=0.25;entryY=0;entryDx=0;entryDy=0;" parent="1" source="qHUCnsP_PapXw8HSUuVQ-38" target="qHUCnsP_PapXw8HSUuVQ-33" edge="1">
          <mxGeometry relative="1" as="geometry">
            <mxPoint x="1075.6999999999998" y="340" as="sourcePoint" />
            <mxPoint x="1255.6999999999998" y="440" as="targetPoint" />
          </mxGeometry>
        </mxCell>
        <mxCell id="qHUCnsP_PapXw8HSUuVQ-40" value="" style="endArrow=none;html=1;rounded=0;exitX=0.75;exitY=0;exitDx=0;exitDy=0;entryX=0.5;entryY=1;entryDx=0;entryDy=0;" parent="1" source="qHUCnsP_PapXw8HSUuVQ-33" target="qHUCnsP_PapXw8HSUuVQ-37" edge="1">
          <mxGeometry relative="1" as="geometry">
            <mxPoint x="1155.6999999999998" y="420" as="sourcePoint" />
            <mxPoint x="1315.6999999999998" y="420" as="targetPoint" />
          </mxGeometry>
        </mxCell>
        <mxCell id="qHUCnsP_PapXw8HSUuVQ-41" value="Possui" style="shape=rhombus;perimeter=rhombusPerimeter;whiteSpace=wrap;html=1;align=center;" parent="1" vertex="1">
          <mxGeometry x="1120.85" y="620" width="120" height="60" as="geometry" />
        </mxCell>
        <mxCell id="qHUCnsP_PapXw8HSUuVQ-44" value="" style="endArrow=none;html=1;rounded=0;exitX=0.75;exitY=1;exitDx=0;exitDy=0;entryX=0;entryY=0;entryDx=0;entryDy=0;" parent="1" source="qHUCnsP_PapXw8HSUuVQ-18" target="qHUCnsP_PapXw8HSUuVQ-41" edge="1">
          <mxGeometry relative="1" as="geometry">
            <mxPoint x="1180.85" y="570" as="sourcePoint" />
            <mxPoint x="1340.85" y="570" as="targetPoint" />
          </mxGeometry>
        </mxCell>
        <mxCell id="qHUCnsP_PapXw8HSUuVQ-132" value="0..N" style="edgeLabel;html=1;align=center;verticalAlign=middle;resizable=0;points=[];" parent="qHUCnsP_PapXw8HSUuVQ-44" vertex="1" connectable="0">
          <mxGeometry x="-0.0445" y="1" relative="1" as="geometry">
            <mxPoint x="17" as="offset" />
          </mxGeometry>
        </mxCell>
        <mxCell id="qHUCnsP_PapXw8HSUuVQ-45" value="Editora" style="whiteSpace=wrap;html=1;align=center;" parent="1" vertex="1">
          <mxGeometry x="1290.85" y="710" width="100" height="40" as="geometry" />
        </mxCell>
        <mxCell id="qHUCnsP_PapXw8HSUuVQ-46" value="" style="endArrow=none;html=1;rounded=0;exitX=1;exitY=1;exitDx=0;exitDy=0;entryX=0;entryY=0.5;entryDx=0;entryDy=0;" parent="1" source="qHUCnsP_PapXw8HSUuVQ-41" target="qHUCnsP_PapXw8HSUuVQ-45" edge="1">
          <mxGeometry relative="1" as="geometry">
            <mxPoint x="1440.85" y="630" as="sourcePoint" />
            <mxPoint x="1600.85" y="630" as="targetPoint" />
          </mxGeometry>
        </mxCell>
        <mxCell id="qHUCnsP_PapXw8HSUuVQ-131" value="1..1" style="edgeLabel;html=1;align=center;verticalAlign=middle;resizable=0;points=[];" parent="qHUCnsP_PapXw8HSUuVQ-46" vertex="1" connectable="0">
          <mxGeometry x="0.1775" relative="1" as="geometry">
            <mxPoint x="-17" as="offset" />
          </mxGeometry>
        </mxCell>
        <mxCell id="qHUCnsP_PapXw8HSUuVQ-47" value="&lt;u style=&quot;&quot;&gt;CNPJ&lt;/u&gt;" style="ellipse;whiteSpace=wrap;html=1;align=center;" parent="1" vertex="1">
          <mxGeometry x="1280.85" y="630" width="100" height="40" as="geometry" />
        </mxCell>
        <mxCell id="qHUCnsP_PapXw8HSUuVQ-48" value="Nome" style="ellipse;whiteSpace=wrap;html=1;align=center;" parent="1" vertex="1">
          <mxGeometry x="1401.85" y="650" width="100" height="40" as="geometry" />
        </mxCell>
        <mxCell id="qHUCnsP_PapXw8HSUuVQ-49" value="Contato" style="ellipse;whiteSpace=wrap;html=1;align=center;" parent="1" vertex="1">
          <mxGeometry x="1462" y="710" width="100" height="40" as="geometry" />
        </mxCell>
        <mxCell id="qHUCnsP_PapXw8HSUuVQ-50" value="Endereço" style="ellipse;whiteSpace=wrap;html=1;align=center;" parent="1" vertex="1">
          <mxGeometry x="1420.85" y="760" width="100" height="40" as="geometry" />
        </mxCell>
        <mxCell id="qHUCnsP_PapXw8HSUuVQ-51" value="Títulos" style="ellipse;shape=doubleEllipse;margin=3;whiteSpace=wrap;html=1;align=center;" parent="1" vertex="1">
          <mxGeometry x="1320.85" y="790" width="100" height="40" as="geometry" />
        </mxCell>
        <mxCell id="qHUCnsP_PapXw8HSUuVQ-52" value="" style="endArrow=none;html=1;rounded=0;exitX=0.5;exitY=1;exitDx=0;exitDy=0;entryX=0.5;entryY=0;entryDx=0;entryDy=0;" parent="1" source="qHUCnsP_PapXw8HSUuVQ-47" target="qHUCnsP_PapXw8HSUuVQ-45" edge="1">
          <mxGeometry relative="1" as="geometry">
            <mxPoint x="1170.85" y="820" as="sourcePoint" />
            <mxPoint x="1330.85" y="820" as="targetPoint" />
          </mxGeometry>
        </mxCell>
        <mxCell id="qHUCnsP_PapXw8HSUuVQ-53" value="" style="endArrow=none;html=1;rounded=0;exitX=0.75;exitY=0;exitDx=0;exitDy=0;entryX=0;entryY=1;entryDx=0;entryDy=0;" parent="1" source="qHUCnsP_PapXw8HSUuVQ-45" target="qHUCnsP_PapXw8HSUuVQ-48" edge="1">
          <mxGeometry relative="1" as="geometry">
            <mxPoint x="1170.85" y="780" as="sourcePoint" />
            <mxPoint x="1330.85" y="780" as="targetPoint" />
          </mxGeometry>
        </mxCell>
        <mxCell id="qHUCnsP_PapXw8HSUuVQ-54" value="" style="endArrow=none;html=1;rounded=0;exitX=1;exitY=0.5;exitDx=0;exitDy=0;entryX=0;entryY=0.5;entryDx=0;entryDy=0;" parent="1" source="qHUCnsP_PapXw8HSUuVQ-45" edge="1">
          <mxGeometry relative="1" as="geometry">
            <mxPoint x="1190.85" y="780" as="sourcePoint" />
            <mxPoint x="1460.85" y="730" as="targetPoint" />
          </mxGeometry>
        </mxCell>
        <mxCell id="qHUCnsP_PapXw8HSUuVQ-55" value="" style="endArrow=none;html=1;rounded=0;exitX=1;exitY=1;exitDx=0;exitDy=0;entryX=0;entryY=0.5;entryDx=0;entryDy=0;" parent="1" source="qHUCnsP_PapXw8HSUuVQ-45" target="qHUCnsP_PapXw8HSUuVQ-50" edge="1">
          <mxGeometry relative="1" as="geometry">
            <mxPoint x="1140.85" y="810" as="sourcePoint" />
            <mxPoint x="1300.85" y="810" as="targetPoint" />
          </mxGeometry>
        </mxCell>
        <mxCell id="qHUCnsP_PapXw8HSUuVQ-56" value="" style="endArrow=none;html=1;rounded=0;entryX=0.5;entryY=0;entryDx=0;entryDy=0;exitX=0.5;exitY=1;exitDx=0;exitDy=0;" parent="1" source="qHUCnsP_PapXw8HSUuVQ-45" target="qHUCnsP_PapXw8HSUuVQ-51" edge="1">
          <mxGeometry relative="1" as="geometry">
            <mxPoint x="1380.85" y="760" as="sourcePoint" />
            <mxPoint x="1290.85" y="830" as="targetPoint" />
          </mxGeometry>
        </mxCell>
        <mxCell id="qHUCnsP_PapXw8HSUuVQ-57" value="Escrito" style="shape=rhombus;perimeter=rhombusPerimeter;whiteSpace=wrap;html=1;align=center;" parent="1" vertex="1">
          <mxGeometry x="930" y="620" width="120" height="60" as="geometry" />
        </mxCell>
        <mxCell id="qHUCnsP_PapXw8HSUuVQ-58" value="Autor" style="whiteSpace=wrap;html=1;align=center;" parent="1" vertex="1">
          <mxGeometry x="939.9999999999998" y="750" width="100" height="40" as="geometry" />
        </mxCell>
        <mxCell id="qHUCnsP_PapXw8HSUuVQ-59" value="" style="endArrow=none;html=1;rounded=0;exitX=0.5;exitY=1;exitDx=0;exitDy=0;entryX=0.5;entryY=0;entryDx=0;entryDy=0;" parent="1" source="qHUCnsP_PapXw8HSUuVQ-57" target="qHUCnsP_PapXw8HSUuVQ-58" edge="1">
          <mxGeometry relative="1" as="geometry">
            <mxPoint x="1190.85" y="740" as="sourcePoint" />
            <mxPoint x="1350.85" y="740" as="targetPoint" />
          </mxGeometry>
        </mxCell>
        <mxCell id="qHUCnsP_PapXw8HSUuVQ-130" value="1..N" style="edgeLabel;html=1;align=center;verticalAlign=middle;resizable=0;points=[];" parent="qHUCnsP_PapXw8HSUuVQ-59" vertex="1" connectable="0">
          <mxGeometry x="-0.07" relative="1" as="geometry">
            <mxPoint x="14" y="-2" as="offset" />
          </mxGeometry>
        </mxCell>
        <mxCell id="qHUCnsP_PapXw8HSUuVQ-61" value="&lt;u&gt;ID&lt;/u&gt;" style="ellipse;whiteSpace=wrap;html=1;align=center;" parent="1" vertex="1">
          <mxGeometry x="799.9999999999999" y="760" width="100" height="40" as="geometry" />
        </mxCell>
        <mxCell id="qHUCnsP_PapXw8HSUuVQ-62" value="Nome" style="ellipse;whiteSpace=wrap;html=1;align=center;" parent="1" vertex="1">
          <mxGeometry x="829.9999999999998" y="820" width="100" height="40" as="geometry" />
        </mxCell>
        <mxCell id="qHUCnsP_PapXw8HSUuVQ-63" value="Nacionalidade" style="ellipse;whiteSpace=wrap;html=1;align=center;" parent="1" vertex="1">
          <mxGeometry x="939.9999999999998" y="840" width="100" height="40" as="geometry" />
        </mxCell>
        <mxCell id="qHUCnsP_PapXw8HSUuVQ-64" value="Nascimento" style="ellipse;whiteSpace=wrap;html=1;align=center;" parent="1" vertex="1">
          <mxGeometry x="1049.9999999999998" y="820" width="100" height="40" as="geometry" />
        </mxCell>
        <mxCell id="qHUCnsP_PapXw8HSUuVQ-65" value="Falecimento" style="ellipse;whiteSpace=wrap;html=1;align=center;" parent="1" vertex="1">
          <mxGeometry x="1090" y="760" width="100" height="40" as="geometry" />
        </mxCell>
        <mxCell id="qHUCnsP_PapXw8HSUuVQ-66" value="" style="endArrow=none;html=1;rounded=0;exitX=1;exitY=0;exitDx=0;exitDy=0;entryX=0;entryY=1;entryDx=0;entryDy=0;" parent="1" source="qHUCnsP_PapXw8HSUuVQ-62" target="qHUCnsP_PapXw8HSUuVQ-58" edge="1">
          <mxGeometry relative="1" as="geometry">
            <mxPoint x="829.9999999999998" y="960" as="sourcePoint" />
            <mxPoint x="989.9999999999998" y="960" as="targetPoint" />
          </mxGeometry>
        </mxCell>
        <mxCell id="qHUCnsP_PapXw8HSUuVQ-67" value="" style="endArrow=none;html=1;rounded=0;exitX=1;exitY=0.5;exitDx=0;exitDy=0;entryX=0;entryY=0.75;entryDx=0;entryDy=0;" parent="1" source="qHUCnsP_PapXw8HSUuVQ-61" target="qHUCnsP_PapXw8HSUuVQ-58" edge="1">
          <mxGeometry relative="1" as="geometry">
            <mxPoint x="889.9999999999998" y="970" as="sourcePoint" />
            <mxPoint x="1049.9999999999998" y="970" as="targetPoint" />
          </mxGeometry>
        </mxCell>
        <mxCell id="qHUCnsP_PapXw8HSUuVQ-68" value="" style="endArrow=none;html=1;rounded=0;exitX=0.5;exitY=0;exitDx=0;exitDy=0;entryX=0.5;entryY=1;entryDx=0;entryDy=0;" parent="1" source="qHUCnsP_PapXw8HSUuVQ-63" target="qHUCnsP_PapXw8HSUuVQ-58" edge="1">
          <mxGeometry relative="1" as="geometry">
            <mxPoint x="859.9999999999998" y="950" as="sourcePoint" />
            <mxPoint x="1019.9999999999998" y="950" as="targetPoint" />
          </mxGeometry>
        </mxCell>
        <mxCell id="qHUCnsP_PapXw8HSUuVQ-69" value="" style="endArrow=none;html=1;rounded=0;exitX=0;exitY=0;exitDx=0;exitDy=0;entryX=1;entryY=1;entryDx=0;entryDy=0;" parent="1" source="qHUCnsP_PapXw8HSUuVQ-64" target="qHUCnsP_PapXw8HSUuVQ-58" edge="1">
          <mxGeometry relative="1" as="geometry">
            <mxPoint x="1080" y="920" as="sourcePoint" />
            <mxPoint x="1240" y="920" as="targetPoint" />
          </mxGeometry>
        </mxCell>
        <mxCell id="qHUCnsP_PapXw8HSUuVQ-70" value="" style="endArrow=none;html=1;rounded=0;exitX=0;exitY=0.5;exitDx=0;exitDy=0;entryX=1;entryY=0.75;entryDx=0;entryDy=0;" parent="1" source="qHUCnsP_PapXw8HSUuVQ-65" target="qHUCnsP_PapXw8HSUuVQ-58" edge="1">
          <mxGeometry relative="1" as="geometry">
            <mxPoint x="1140" y="920" as="sourcePoint" />
            <mxPoint x="1300" y="920" as="targetPoint" />
          </mxGeometry>
        </mxCell>
        <mxCell id="qHUCnsP_PapXw8HSUuVQ-76" value="Data do emprestimo" style="ellipse;whiteSpace=wrap;html=1;align=center;" parent="1" vertex="1">
          <mxGeometry x="860" y="330" width="100" height="40" as="geometry" />
        </mxCell>
        <mxCell id="qHUCnsP_PapXw8HSUuVQ-77" value="Devolução" style="ellipse;whiteSpace=wrap;html=1;align=center;" parent="1" vertex="1">
          <mxGeometry x="750" y="350" width="100" height="40" as="geometry" />
        </mxCell>
        <mxCell id="qHUCnsP_PapXw8HSUuVQ-80" value="" style="endArrow=none;html=1;rounded=0;exitX=0.5;exitY=0;exitDx=0;exitDy=0;entryX=0.5;entryY=1;entryDx=0;entryDy=0;" parent="1" source="qHUCnsP_PapXw8HSUuVQ-77" target="qHUCnsP_PapXw8HSUuVQ-106" edge="1">
          <mxGeometry relative="1" as="geometry">
            <mxPoint x="590" y="440" as="sourcePoint" />
            <mxPoint x="800" y="310" as="targetPoint" />
          </mxGeometry>
        </mxCell>
        <mxCell id="qHUCnsP_PapXw8HSUuVQ-81" value="" style="endArrow=none;html=1;rounded=0;exitX=1;exitY=0;exitDx=0;exitDy=0;entryX=0.25;entryY=1;entryDx=0;entryDy=0;" parent="1" source="qHUCnsP_PapXw8HSUuVQ-83" target="qHUCnsP_PapXw8HSUuVQ-106" edge="1">
          <mxGeometry relative="1" as="geometry">
            <mxPoint x="619.2236631845064" y="325.8053894629601" as="sourcePoint" />
            <mxPoint x="770" y="295" as="targetPoint" />
          </mxGeometry>
        </mxCell>
        <mxCell id="qHUCnsP_PapXw8HSUuVQ-133" value="0..N" style="edgeLabel;html=1;align=center;verticalAlign=middle;resizable=0;points=[];" parent="qHUCnsP_PapXw8HSUuVQ-81" vertex="1" connectable="0">
          <mxGeometry x="-0.2371" y="2" relative="1" as="geometry">
            <mxPoint x="22" y="12" as="offset" />
          </mxGeometry>
        </mxCell>
        <mxCell id="qHUCnsP_PapXw8HSUuVQ-82" value="" style="endArrow=none;html=1;rounded=0;entryX=0;entryY=0;entryDx=0;entryDy=0;exitX=0.75;exitY=1;exitDx=0;exitDy=0;" parent="1" source="qHUCnsP_PapXw8HSUuVQ-106" target="qHUCnsP_PapXw8HSUuVQ-76" edge="1">
          <mxGeometry relative="1" as="geometry">
            <mxPoint x="830" y="310" as="sourcePoint" />
            <mxPoint x="820" y="450" as="targetPoint" />
          </mxGeometry>
        </mxCell>
        <mxCell id="qHUCnsP_PapXw8HSUuVQ-83" value="Registrado" style="shape=rhombus;perimeter=rhombusPerimeter;whiteSpace=wrap;html=1;align=center;" parent="1" vertex="1">
          <mxGeometry x="580" y="350" width="120" height="60" as="geometry" />
        </mxCell>
        <mxCell id="qHUCnsP_PapXw8HSUuVQ-84" value="Funcionário" style="whiteSpace=wrap;html=1;align=center;" parent="1" vertex="1">
          <mxGeometry x="440" y="470" width="100" height="40" as="geometry" />
        </mxCell>
        <mxCell id="qHUCnsP_PapXw8HSUuVQ-85" value="" style="endArrow=none;html=1;rounded=0;exitX=0.5;exitY=0;exitDx=0;exitDy=0;entryX=0.5;entryY=1;entryDx=0;entryDy=0;" parent="1" source="qHUCnsP_PapXw8HSUuVQ-96" target="qHUCnsP_PapXw8HSUuVQ-83" edge="1">
          <mxGeometry relative="1" as="geometry">
            <mxPoint x="470" y="530" as="sourcePoint" />
            <mxPoint x="630" y="530" as="targetPoint" />
          </mxGeometry>
        </mxCell>
        <mxCell id="qHUCnsP_PapXw8HSUuVQ-134" value="1..1" style="edgeLabel;html=1;align=center;verticalAlign=middle;resizable=0;points=[];" parent="qHUCnsP_PapXw8HSUuVQ-85" vertex="1" connectable="0">
          <mxGeometry x="-0.0299" y="-1" relative="1" as="geometry">
            <mxPoint as="offset" />
          </mxGeometry>
        </mxCell>
        <mxCell id="qHUCnsP_PapXw8HSUuVQ-86" value="Nome" style="ellipse;whiteSpace=wrap;html=1;align=center;" parent="1" vertex="1">
          <mxGeometry x="310" y="420" width="100" height="40" as="geometry" />
        </mxCell>
        <mxCell id="qHUCnsP_PapXw8HSUuVQ-87" value="Endereço" style="ellipse;whiteSpace=wrap;html=1;align=center;" parent="1" vertex="1">
          <mxGeometry x="260" y="470" width="100" height="40" as="geometry" />
        </mxCell>
        <mxCell id="qHUCnsP_PapXw8HSUuVQ-88" value="Salário" style="ellipse;whiteSpace=wrap;html=1;align=center;" parent="1" vertex="1">
          <mxGeometry x="310" y="520" width="100" height="40" as="geometry" />
        </mxCell>
        <mxCell id="qHUCnsP_PapXw8HSUuVQ-89" value="" style="endArrow=none;html=1;rounded=0;exitX=1;exitY=0.5;exitDx=0;exitDy=0;entryX=0;entryY=1;entryDx=0;entryDy=0;" parent="1" source="qHUCnsP_PapXw8HSUuVQ-88" target="qHUCnsP_PapXw8HSUuVQ-84" edge="1">
          <mxGeometry relative="1" as="geometry">
            <mxPoint x="410" y="630" as="sourcePoint" />
            <mxPoint x="570" y="630" as="targetPoint" />
          </mxGeometry>
        </mxCell>
        <mxCell id="qHUCnsP_PapXw8HSUuVQ-90" value="" style="endArrow=none;html=1;rounded=0;exitX=1;exitY=0.5;exitDx=0;exitDy=0;entryX=0;entryY=0.5;entryDx=0;entryDy=0;" parent="1" source="qHUCnsP_PapXw8HSUuVQ-87" target="qHUCnsP_PapXw8HSUuVQ-84" edge="1">
          <mxGeometry relative="1" as="geometry">
            <mxPoint x="410" y="660" as="sourcePoint" />
            <mxPoint x="570" y="660" as="targetPoint" />
          </mxGeometry>
        </mxCell>
        <mxCell id="qHUCnsP_PapXw8HSUuVQ-91" value="" style="endArrow=none;html=1;rounded=0;exitX=1;exitY=0.5;exitDx=0;exitDy=0;entryX=0;entryY=0;entryDx=0;entryDy=0;" parent="1" source="qHUCnsP_PapXw8HSUuVQ-86" target="qHUCnsP_PapXw8HSUuVQ-84" edge="1">
          <mxGeometry relative="1" as="geometry">
            <mxPoint x="450" y="590" as="sourcePoint" />
            <mxPoint x="610" y="590" as="targetPoint" />
          </mxGeometry>
        </mxCell>
        <mxCell id="qHUCnsP_PapXw8HSUuVQ-92" value="" style="triangle;whiteSpace=wrap;html=1;rotation=90;" parent="1" vertex="1">
          <mxGeometry x="460" y="550" width="60" height="80" as="geometry" />
        </mxCell>
        <mxCell id="qHUCnsP_PapXw8HSUuVQ-93" value="ISA" style="text;strokeColor=none;fillColor=none;spacingLeft=4;spacingRight=4;overflow=hidden;rotatable=0;points=[[0,0.5],[1,0.5]];portConstraint=eastwest;fontSize=12;whiteSpace=wrap;html=1;" parent="1" vertex="1">
          <mxGeometry x="475" y="570" width="30" height="30" as="geometry" />
        </mxCell>
        <mxCell id="qHUCnsP_PapXw8HSUuVQ-94" value="" style="endArrow=none;html=1;rounded=0;exitX=0;exitY=0.5;exitDx=0;exitDy=0;entryX=0.5;entryY=1;entryDx=0;entryDy=0;" parent="1" source="qHUCnsP_PapXw8HSUuVQ-92" target="qHUCnsP_PapXw8HSUuVQ-84" edge="1">
          <mxGeometry relative="1" as="geometry">
            <mxPoint x="490" y="680" as="sourcePoint" />
            <mxPoint x="650" y="680" as="targetPoint" />
          </mxGeometry>
        </mxCell>
        <mxCell id="qHUCnsP_PapXw8HSUuVQ-95" value="Bibliotecaria" style="whiteSpace=wrap;html=1;align=center;" parent="1" vertex="1">
          <mxGeometry x="360" y="660" width="100" height="40" as="geometry" />
        </mxCell>
        <mxCell id="qHUCnsP_PapXw8HSUuVQ-96" value="Balconista" style="whiteSpace=wrap;html=1;align=center;" parent="1" vertex="1">
          <mxGeometry x="590" y="570" width="100" height="40" as="geometry" />
        </mxCell>
        <mxCell id="qHUCnsP_PapXw8HSUuVQ-97" value="" style="endArrow=none;html=1;rounded=0;exitX=0.5;exitY=0;exitDx=0;exitDy=0;entryX=0.5;entryY=1;entryDx=0;entryDy=0;" parent="1" source="qHUCnsP_PapXw8HSUuVQ-95" target="qHUCnsP_PapXw8HSUuVQ-92" edge="1">
          <mxGeometry relative="1" as="geometry">
            <mxPoint x="190" y="640" as="sourcePoint" />
            <mxPoint x="350" y="640" as="targetPoint" />
          </mxGeometry>
        </mxCell>
        <mxCell id="qHUCnsP_PapXw8HSUuVQ-98" value="" style="endArrow=none;html=1;rounded=0;exitX=0.5;exitY=0;exitDx=0;exitDy=0;entryX=0;entryY=0.5;entryDx=0;entryDy=0;" parent="1" source="qHUCnsP_PapXw8HSUuVQ-92" target="qHUCnsP_PapXw8HSUuVQ-96" edge="1">
          <mxGeometry relative="1" as="geometry">
            <mxPoint x="590" y="580" as="sourcePoint" />
            <mxPoint x="729.9999999999999" y="610" as="targetPoint" />
          </mxGeometry>
        </mxCell>
        <mxCell id="qHUCnsP_PapXw8HSUuVQ-99" value="&lt;u&gt;Registro&lt;/u&gt;" style="ellipse;whiteSpace=wrap;html=1;align=center;" parent="1" vertex="1">
          <mxGeometry x="230" y="605" width="100" height="40" as="geometry" />
        </mxCell>
        <mxCell id="qHUCnsP_PapXw8HSUuVQ-100" value="" style="endArrow=none;html=1;rounded=0;exitX=1;exitY=1;exitDx=0;exitDy=0;entryX=0;entryY=0;entryDx=0;entryDy=0;" parent="1" source="qHUCnsP_PapXw8HSUuVQ-99" target="qHUCnsP_PapXw8HSUuVQ-95" edge="1">
          <mxGeometry relative="1" as="geometry">
            <mxPoint x="280" y="910" as="sourcePoint" />
            <mxPoint x="440" y="910" as="targetPoint" />
          </mxGeometry>
        </mxCell>
        <mxCell id="qHUCnsP_PapXw8HSUuVQ-101" value="Turno" style="ellipse;whiteSpace=wrap;html=1;align=center;" parent="1" vertex="1">
          <mxGeometry x="680" y="645" width="100" height="40" as="geometry" />
        </mxCell>
        <mxCell id="qHUCnsP_PapXw8HSUuVQ-103" value="" style="endArrow=none;html=1;rounded=0;exitX=1;exitY=1;exitDx=0;exitDy=0;entryX=0.5;entryY=0;entryDx=0;entryDy=0;" parent="1" source="qHUCnsP_PapXw8HSUuVQ-96" target="qHUCnsP_PapXw8HSUuVQ-101" edge="1">
          <mxGeometry relative="1" as="geometry">
            <mxPoint x="650" y="770" as="sourcePoint" />
            <mxPoint x="810" y="770" as="targetPoint" />
          </mxGeometry>
        </mxCell>
        <mxCell id="qHUCnsP_PapXw8HSUuVQ-106" value="Emprestimo" style="whiteSpace=wrap;html=1;align=center;" parent="1" vertex="1">
          <mxGeometry x="750" y="260" width="100" height="40" as="geometry" />
        </mxCell>
        <mxCell id="qHUCnsP_PapXw8HSUuVQ-108" value="Realizam" style="shape=rhombus;perimeter=rhombusPerimeter;whiteSpace=wrap;html=1;align=center;" parent="1" vertex="1">
          <mxGeometry x="590" y="250" width="120" height="60" as="geometry" />
        </mxCell>
        <mxCell id="qHUCnsP_PapXw8HSUuVQ-110" value="1..1" style="endArrow=none;html=1;rounded=0;exitX=1;exitY=0.5;exitDx=0;exitDy=0;entryX=0;entryY=0.5;entryDx=0;entryDy=0;" parent="1" source="qHUCnsP_PapXw8HSUuVQ-1" target="qHUCnsP_PapXw8HSUuVQ-108" edge="1">
          <mxGeometry y="10" relative="1" as="geometry">
            <mxPoint x="570" y="320" as="sourcePoint" />
            <mxPoint x="730" y="320" as="targetPoint" />
            <Array as="points" />
            <mxPoint as="offset" />
          </mxGeometry>
        </mxCell>
        <mxCell id="qHUCnsP_PapXw8HSUuVQ-112" value="" style="endArrow=none;html=1;rounded=0;exitX=1;exitY=0.5;exitDx=0;exitDy=0;entryX=0;entryY=0.5;entryDx=0;entryDy=0;" parent="1" source="qHUCnsP_PapXw8HSUuVQ-108" target="qHUCnsP_PapXw8HSUuVQ-106" edge="1">
          <mxGeometry relative="1" as="geometry">
            <mxPoint x="590" y="320" as="sourcePoint" />
            <mxPoint x="750" y="320" as="targetPoint" />
          </mxGeometry>
        </mxCell>
        <mxCell id="qHUCnsP_PapXw8HSUuVQ-113" value="1..1" style="edgeLabel;html=1;align=center;verticalAlign=middle;resizable=0;points=[];" parent="qHUCnsP_PapXw8HSUuVQ-112" vertex="1" connectable="0">
          <mxGeometry x="-0.0643" relative="1" as="geometry">
            <mxPoint y="-10" as="offset" />
          </mxGeometry>
        </mxCell>
        <mxCell id="qHUCnsP_PapXw8HSUuVQ-114" value="Possui" style="shape=rhombus;perimeter=rhombusPerimeter;whiteSpace=wrap;html=1;align=center;" parent="1" vertex="1">
          <mxGeometry x="889" y="250" width="120" height="60" as="geometry" />
        </mxCell>
        <mxCell id="qHUCnsP_PapXw8HSUuVQ-115" value="" style="endArrow=none;html=1;rounded=0;exitX=1;exitY=0.5;exitDx=0;exitDy=0;entryX=0;entryY=0.5;entryDx=0;entryDy=0;" parent="1" source="qHUCnsP_PapXw8HSUuVQ-106" target="qHUCnsP_PapXw8HSUuVQ-114" edge="1">
          <mxGeometry relative="1" as="geometry">
            <mxPoint x="850" y="310" as="sourcePoint" />
            <mxPoint x="1010" y="310" as="targetPoint" />
          </mxGeometry>
        </mxCell>
        <mxCell id="qHUCnsP_PapXw8HSUuVQ-117" value="1..N" style="edgeLabel;html=1;align=center;verticalAlign=middle;resizable=0;points=[];" parent="qHUCnsP_PapXw8HSUuVQ-115" vertex="1" connectable="0">
          <mxGeometry x="-0.0154" relative="1" as="geometry">
            <mxPoint y="-10" as="offset" />
          </mxGeometry>
        </mxCell>
        <mxCell id="qHUCnsP_PapXw8HSUuVQ-123" value="" style="endArrow=none;html=1;rounded=0;exitX=1;exitY=0.5;exitDx=0;exitDy=0;entryX=0;entryY=0.5;entryDx=0;entryDy=0;" parent="1" source="qHUCnsP_PapXw8HSUuVQ-114" target="qHUCnsP_PapXw8HSUuVQ-33" edge="1">
          <mxGeometry relative="1" as="geometry">
            <mxPoint x="1051.85" y="280" as="sourcePoint" />
            <mxPoint x="1222.85" y="360" as="targetPoint" />
          </mxGeometry>
        </mxCell>
        <mxCell id="qHUCnsP_PapXw8HSUuVQ-124" value="1..N" style="edgeLabel;html=1;align=center;verticalAlign=middle;resizable=0;points=[];" parent="qHUCnsP_PapXw8HSUuVQ-123" vertex="1" connectable="0">
          <mxGeometry x="-0.1168" relative="1" as="geometry">
            <mxPoint y="-10" as="offset" />
          </mxGeometry>
        </mxCell>
        <mxCell id="qHUCnsP_PapXw8HSUuVQ-125" value="" style="endArrow=none;html=1;rounded=0;exitX=0.5;exitY=0;exitDx=0;exitDy=0;entryX=0.5;entryY=1;entryDx=0;entryDy=0;" parent="1" source="qHUCnsP_PapXw8HSUuVQ-34" target="qHUCnsP_PapXw8HSUuVQ-33" edge="1">
          <mxGeometry relative="1" as="geometry">
            <mxPoint x="1180" y="370" as="sourcePoint" />
            <mxPoint x="1340" y="370" as="targetPoint" />
          </mxGeometry>
        </mxCell>
        <mxCell id="qHUCnsP_PapXw8HSUuVQ-127" value="0..N" style="edgeLabel;html=1;align=center;verticalAlign=middle;resizable=0;points=[];" parent="qHUCnsP_PapXw8HSUuVQ-125" vertex="1" connectable="0">
          <mxGeometry x="-0.1304" y="-4" relative="1" as="geometry">
            <mxPoint x="-15" y="-14" as="offset" />
          </mxGeometry>
        </mxCell>
        <mxCell id="qHUCnsP_PapXw8HSUuVQ-126" value="" style="endArrow=none;html=1;rounded=0;exitX=0.5;exitY=1;exitDx=0;exitDy=0;entryX=0.5;entryY=0;entryDx=0;entryDy=0;" parent="1" source="qHUCnsP_PapXw8HSUuVQ-34" target="qHUCnsP_PapXw8HSUuVQ-18" edge="1">
          <mxGeometry relative="1" as="geometry">
            <mxPoint x="1110" y="480" as="sourcePoint" />
            <mxPoint x="1270" y="480" as="targetPoint" />
          </mxGeometry>
        </mxCell>
        <mxCell id="qHUCnsP_PapXw8HSUuVQ-128" value="1..1" style="edgeLabel;html=1;align=center;verticalAlign=middle;resizable=0;points=[];" parent="qHUCnsP_PapXw8HSUuVQ-126" vertex="1" connectable="0">
          <mxGeometry x="0.0396" relative="1" as="geometry">
            <mxPoint x="-10" as="offset" />
          </mxGeometry>
        </mxCell>
      </root>
    </mxGraphModel>
  </diagram>
</mxfile>
